<svg xmlns="http://www.w3.org/2000/svg" width="118.326" height="94.33" viewBox="0 0 118.326 94.33">
  <g id="undraw_warning_re_eoyh" transform="translate(0 0)">
    <path id="Path_20775" data-name="Path 20775" d="M440.867,335.865a.512.512,0,0,0,.371-.887l-.035-.139.014-.033a1.31,1.31,0,0,1,1.708-.7c2.1.868-.117,2.864.05,4.215.058.466,1.884.492,1.781.949a16.3,16.3,0,0,0,1.481-6.771,15.731,15.731,0,0,0-.1-1.755q-.081-.717-.225-1.423a16.49,16.49,0,0,0-3.273-6.988c-.781-.427-.3-1.094-.7-1.893-.141-.288-1.4-.295-1.455-.611.056.007.872-.839.6-1.258a.694.694,0,0,1,.106-.862.719.719,0,0,0,.063-.074c.672-.912,1.6-.753,2.083.486,1.034.521,1.044,1.386.41,2.218-.4.529-.458,1.246-.812,1.812.036.047.074.092.111.138a16.591,16.591,0,0,1,1.733,2.744,6.9,6.9,0,0,1,.411-3.2,11.693,11.693,0,0,1,1.8-2.593,1.409,1.409,0,0,1,2.508.713l0,.036q-.145.082-.284.174a.694.694,0,0,0,.281,1.263l.014,0c-.035.348-1.27,1.445-1.358,1.784.836,3.227.21,3.653-2.36,3.707l-.135.192a16.952,16.952,0,0,1,.876,4.185,16.07,16.07,0,0,1-.011,2.594l0-.031a4.246,4.246,0,0,1,1.448-2.452c1.115-.917,2.691-1.255,3.894-1.991a.8.8,0,0,1,1.221.775l0,.032a4.663,4.663,0,0,0-.523.252q-.145.082-.284.174a.694.694,0,0,0,.281,1.263l.014,0,.029,0c-.307.73-3.233,1.759-3.769,2.344-.521,2.819-.265,2.735-2.664,1.915h0a16.931,16.931,0,0,1-1.136,3.321H440.97c-.015-.045-.028-.092-.041-.137a4.617,4.617,0,0,0,1.124-.067l-.9-1.113a.264.264,0,0,1-.019-.022l0-.006-.418-1.377a6.939,6.939,0,0,1,.16-.907h0Z" transform="translate(-341.146 -245.548)" fill="#f2f2f2"/>
    <path id="Path_20776" data-name="Path 20776" d="M111.053,269.8l-35.961.012a4.987,4.987,0,0,1-4.331-7.495l17.969-32.712a5,5,0,0,1,8.656,0l17.994,32.7a5,5,0,0,1-4.328,7.494h0Zm-40.517-4.984c0,.781,3.968-.9,4.379-.191.822,1.423-1.468,4.737.176,4.736,0,0,39.077-.863,39.9-2.287a4.5,4.5,0,0,0,0-4.546l-17.994-32.7a4.5,4.5,0,0,0-3.936-2.268c-1.643,0-22.521,36.478-22.521,37.26h0Z" transform="translate(-54.279 -175.889)" fill="#3f3d56"/>
    <path id="Path_20777" data-name="Path 20777" d="M253.491,394.764c-.451.9,20.661.625,20.911.625a58.846,58.846,0,0,0,6.059-.347.683.683,0,0,0,0-.69l-2.733-4.966a.683.683,0,0,0-.6-.344.086.086,0,0,0-.045.027,20.122,20.122,0,0,1-13.026,5.484c-5.2.077-10.539.156-10.568.213h0Z" transform="translate(-196.317 -301.303)" fill="#3f3d56"/>
    <path id="Path_20778" data-name="Path 20778" d="M0,416.019a.268.268,0,0,0,.268.268l117.789-.041a.268.268,0,1,0,0-.537L.268,415.751a.268.268,0,0,0-.268.268Z" transform="translate(0 -321.957)" fill="#ccc"/>
    <g id="Group_37782" data-name="Group 37782" transform="translate(83.999 84.891)">
      <path id="Path_20779" data-name="Path 20779" d="M393.531,384.286h-2.04l-.973-7.868h3.01Z" transform="translate(-386.445 -376.418)" fill="#a0616a"/>
      <path id="Path_20780" data-name="Path 20780" d="M372.557,403.2h0a1.751,1.751,0,0,0-.1.577h0a.692.692,0,0,0,.693.692l6.317,0a.472.472,0,0,0,.472-.472v-.263a2.019,2.019,0,0,0-.331-1.765s-.8.763-1.995-.431l-.353-.638-2.55,1.866-1.414.174c-.309.038-.584-.006-.743.262h0Z" transform="translate(-372.46 -395.378)" fill="#2f2e41"/>
    </g>
    <g id="Group_37783" data-name="Group 37783" transform="translate(76.623 78.577)">
      <path id="Path_20781" data-name="Path 20781" d="M350.743,355.874l-1.932.654-3.442-7.141,2.852-.965Z" transform="translate(-344.103 -348.421)" fill="#a0616a"/>
      <path id="Path_20782" data-name="Path 20782" d="M339.761,378.54h0a1.752,1.752,0,0,0,.093.577h0a.692.692,0,0,0,.878.434l5.984-2.025a.472.472,0,0,0,.3-.6l-.084-.249a2.019,2.019,0,0,0-.879-1.565s-.513.979-2.028.23l-.538-.492-1.818,2.585-1.283.618c-.281.135-.555.181-.619.486h0Z" transform="translate(-339.756 -368.89)" fill="#2f2e41"/>
    </g>
    <path id="Path_20783" data-name="Path 20783" d="M325.6,175.671l-3.956,13.1-4.671,11.786,7.395,16.832,2.742-1.22-3.281-15.462,6.88-10.492,3.211,32.753,2.742-.153,3.719-39.535.53-8.608Z" transform="translate(-245.487 -135.282)" fill="#2f2e41"/>
    <path id="Path_20784" data-name="Path 20784" d="M363.144,50.385l-5.789,1.068-.456,2.59-3.5,1.677-1.822,19.044s-3.046,3.962-.608,5.18L366.5,78.416s.761-2.817,0-3.084-.764-7-.764-7l3.5-13.84-5.18-1.826-.915-2.285Z" transform="translate(-271.082 -39.022)" fill="#e6e6e6"/>
    <circle id="Ellipse_1379" data-name="Ellipse 1379" cx="4.675" cy="4.675" r="4.675" transform="translate(83.972 1.964)" fill="#a0616a"/>
    <path id="Path_20785" data-name="Path 20785" d="M376.256,7.332c-.373.2-.019,1.179-.252,1.263-.269.1-1.252-1.021-1.264-2.274a4.249,4.249,0,0,0,0-1.011c-.11-.588-.447-1.282-.758-1.263-.185.011-.365.272-.379.505-.019.327.3.456.253.632-.087.335-1.42.567-1.9,0-.372-.444-.087-1.223-.253-1.263-.123-.029-.254.4-.758.885-.19.183-.472.454-.632.379-.231-.109-.063-.874-.127-.884a6.242,6.242,0,0,1-.379,1.011c-.377.618-1.153,1.095-1.516.885-.222-.128-.24-.486-.253-.758-.028-.572-.86-1.889-.645-2.5.438-1.246,1.189-.368,1.528-.784.46-.563.872-.26,1.642-.885.753-.61.759-1.223,1.263-1.264.454-.036.615.448,1.137.379.442-.059.538-.434.884-.379.317.05.337.381.758.505.269.079.328-.036.632,0a1.818,1.818,0,0,1,1.137.758c.307.416.188.592.506,1.011.274.361.882.208,1.11.388a3.652,3.652,0,0,1,1.073,2.916,8.9,8.9,0,0,1-.361,2.4,6.211,6.211,0,0,1-1.567,2.383c-.131.128-.5.489-.758.379s-.253-.57-.253-.632c0-.212.055-.474.5-1.137.472-.7.66-.776.631-1.011-.051-.415-.714-.794-1.011-.631h0Z" transform="translate(-284.514)" fill="#2f2e41"/>
    <g id="Group_37784" data-name="Group 37784" transform="translate(75.333 16.575)">
      <path id="Path_20786" data-name="Path 20786" d="M334.41,203.491c-.145,1.218.365,2.281,1.14,2.374s1.522-.82,1.667-2.039a3.071,3.071,0,0,0-.153-1.442l.552-5.171-2.432-.207-.286,5.119a3.071,3.071,0,0,0-.489,1.366h0Z" transform="translate(-334.306 -169.152)" fill="#a0616a"/>
      <path id="Path_20787" data-name="Path 20787" d="M341.13,73.5a2.634,2.634,0,0,0-2.094,1.647c-.443.866-2.815,17.056-2.815,17.056l-2.185,13.263,3.722.019,2.9-12.56,2.44-7.285L341.13,73.5Z" transform="translate(-334.036 -73.498)" fill="#e6e6e6"/>
    </g>
    <path id="Path_20788" data-name="Path 20788" d="M411.427,195.669c-.356,1.174-.04,2.31.708,2.537s1.642-.541,2-1.715a3.071,3.071,0,0,0,.1-1.447l1.448-4.994-2.358-.629-1.177,4.99a3.072,3.072,0,0,0-.72,1.259h0Z" transform="translate(-318.527 -146.701)" fill="#a0616a"/>
    <path id="Path_20789" data-name="Path 20789" d="M408.775,68.141a2.3,2.3,0,0,1,3.352.761c1.524,2.132,2.14,19.652,2.14,19.652L410,99.371l-3.2-1.065,3.042-13.255L404.512,75l4.263-6.857h0Z" transform="translate(-313.285 -52.437)" fill="#e6e6e6"/>
    <g id="Group_37786" data-name="Group 37786" transform="translate(32.809 53.772)">
      <circle id="Ellipse_1380" data-name="Ellipse 1380" cx="16.463" cy="16.463" r="16.463" fill="#6c63ff"/>
      <g id="Group_37785" data-name="Group 37785" transform="translate(10.989 5.329)">
        <circle id="Ellipse_1381" data-name="Ellipse 1381" cx="1.512" cy="1.512" r="1.512" transform="translate(3.966 18.204)" fill="#fff"/>
        <path id="Path_20790" data-name="Path 20790" d="M199.676,263.1c-.139.923.11,1.116.111,5.094s.827,9.311-.106,9.311-1.274-11.006-4.514-11.98C191.358,264.381,200.126,260.115,199.676,263.1Z" transform="translate(-194.205 -262.059)" fill="#fff"/>
      </g>
    </g>
    <path id="Path_20791" data-name="Path 20791" d="M60.265,281.935l-1.487,3.143a23.077,23.077,0,0,1,6.842-3,23.058,23.058,0,0,1-6.153-4.234l.855,3.321c-10.03-2.043-17.233-9.737-17.236-18.551l-.362-.125C42.727,271.7,49.83,279.849,60.265,281.935Z" transform="translate(-33.089 -203.294)" fill="#3f3d56"/>
  </g>
</svg>
