<svg width="24" height="24" viewBox="0 0 24 24" fill="none" xmlns="http://www.w3.org/2000/svg">
<path d="M4 4.25C4 3.00736 5.00736 2 6.25 2H13.9104L20 8.09838V10.2931C19.7277 10.1914 19.4328 10.1357 19.125 10.1357H4.875C4.56717 10.1357 4.27233 10.1914 4 10.2931V4.25ZM13.6113 3.82332V8.38501H18.1664L13.6113 3.82332Z" fill="black"/>
<path d="M19.125 20.1357C19.4284 20.1357 19.7191 20.0817 19.9881 19.9827C19.8716 21.116 18.9141 22 17.75 22H6.25C5.08595 22 4.12836 21.116 4.01189 19.9828C4.28091 20.0817 4.57165 20.1357 4.875 20.1357H19.125Z" fill="black"/>
<path d="M9.03782 15.168V13.7128H9.65998C9.83896 13.7128 9.98668 13.7433 10.1032 13.8044C10.2196 13.864 10.3063 13.9486 10.3631 14.0579C10.4213 14.1659 10.4505 14.2923 10.4505 14.4372C10.4505 14.5807 10.4213 14.7078 10.3631 14.8186C10.3063 14.928 10.2196 15.0139 10.1032 15.0764C9.9881 15.1375 9.8418 15.168 9.66424 15.168H9.03782Z" fill="black"/>
<path d="M3.125 12.6357C3.125 11.6692 3.9085 10.8857 4.875 10.8857H19.125C20.0915 10.8857 20.875 11.6692 20.875 12.6357V17.6357C20.875 18.6022 20.0915 19.3857 19.125 19.3857H4.875C3.9085 19.3857 3.125 18.6022 3.125 17.6357V12.6357ZM18.4421 14.094C18.4961 14.1735 18.538 14.2652 18.5678 14.3689H19.5053C19.4755 14.1529 19.408 13.9555 19.3029 13.7765C19.1978 13.5961 19.0621 13.4406 18.896 13.3099C18.7312 13.1792 18.5423 13.0784 18.3292 13.0073C18.1161 12.9349 17.886 12.8987 17.6388 12.8987C17.3505 12.8987 17.0827 12.9491 16.8356 13.05C16.5884 13.1508 16.3718 13.2978 16.1857 13.491C15.9996 13.6842 15.8548 13.92 15.7511 14.1984C15.6488 14.4754 15.5977 14.7907 15.5977 15.1444C15.5977 15.6046 15.6836 16.0024 15.8555 16.3376C16.0288 16.6714 16.2702 16.9292 16.5799 17.111C16.8896 17.2914 17.2489 17.3816 17.658 17.3816C18.0245 17.3816 18.3498 17.3078 18.6339 17.16C18.918 17.0109 19.141 16.7992 19.3029 16.5251C19.4648 16.2495 19.5458 15.92 19.5458 15.5365V14.9867H17.7198V15.6814H18.657C18.6532 15.8558 18.6136 16.0078 18.538 16.1373C18.4599 16.2737 18.3462 16.3795 18.1971 16.4548C18.0494 16.5287 17.8711 16.5656 17.6623 16.5656C17.4322 16.5656 17.2326 16.5102 17.0636 16.3994C16.8945 16.2872 16.7639 16.1245 16.6715 15.9115C16.5792 15.6984 16.533 15.4399 16.533 15.1359C16.533 14.8319 16.5799 14.5748 16.6737 14.3646C16.7674 14.1529 16.8981 13.9917 17.0657 13.8809C17.2347 13.7701 17.4308 13.7147 17.6538 13.7147C17.7731 13.7147 17.8817 13.7296 17.9798 13.7595C18.0792 13.7893 18.1673 13.8326 18.244 13.8894C18.3221 13.9448 18.3881 14.013 18.4421 14.094ZM12 17.3221H14.9489V16.5615H12.9226V15.5196H14.7891V14.7589H12.9226V13.7191H14.9403V12.9585H12V17.3221ZM8.11523 12.9585V17.3221H9.03782V15.9074H9.81339C10.1486 15.9074 10.4341 15.8456 10.6699 15.722C10.9071 15.5984 11.0882 15.4258 11.2132 15.2042C11.3382 14.9826 11.4007 14.727 11.4007 14.4372C11.4007 14.1474 11.339 13.8917 11.2154 13.6701C11.0932 13.4471 10.9157 13.2731 10.6827 13.1481C10.4498 13.0217 10.1678 12.9585 9.83683 12.9585H8.11523ZM6.4409 12.9585V16.0011C6.4409 16.1403 6.4203 16.2575 6.37911 16.3527C6.33791 16.4478 6.27755 16.5203 6.198 16.57C6.11987 16.6183 6.02399 16.6424 5.91036 16.6424C5.8024 16.6424 5.70865 16.6211 5.62911 16.5785C5.55098 16.5345 5.48919 16.472 5.44374 16.391C5.3997 16.3086 5.37627 16.2099 5.37343 16.0949H4.4551C4.45368 16.3846 4.51547 16.6254 4.64047 16.8172C4.76547 17.0075 4.93451 17.1495 5.14757 17.2433C5.36206 17.3356 5.6007 17.3818 5.86348 17.3818C6.15894 17.3818 6.41817 17.3257 6.64118 17.2135C6.86419 17.1013 7.0382 16.9415 7.1632 16.7341C7.28962 16.5267 7.35283 16.2824 7.35283 16.0011V12.9585H6.4409Z" fill="black"/>
</svg>
