<svg width="24" height="24" viewBox="0 0 24 24" fill="none" xmlns="http://www.w3.org/2000/svg">
<path d="M4 4.25C4 3.00736 5.00736 2 6.25 2H13.9104L20 8.09838V10.2931C19.7277 10.1914 19.4328 10.1357 19.125 10.1357H4.875C4.56717 10.1357 4.27233 10.1914 4 10.2931V4.25ZM13.6113 3.82332V8.38501H18.1664L13.6113 3.82332Z" fill="black"/>
<path d="M19.125 20.1357C19.4284 20.1357 19.7191 20.0817 19.9881 19.9827C19.8716 21.116 18.9141 22 17.75 22H6.25C5.08595 22 4.12836 21.116 4.01189 19.9828C4.28091 20.0817 4.57165 20.1357 4.875 20.1357H19.125Z" fill="black"/>
<path d="M11.824 16.5316H11.238V13.749H11.8261C12.0988 13.749 12.3282 13.7973 12.5143 13.8939C12.7004 13.9905 12.8403 14.141 12.934 14.3456C13.0292 14.5501 13.0768 14.8136 13.0768 15.1361C13.0768 15.4613 13.0292 15.727 12.934 15.9329C12.8403 16.1375 12.6997 16.2888 12.5122 16.3868C12.3261 16.4834 12.0967 16.5316 11.824 16.5316Z" fill="black"/>
<path d="M7.35325 13.7128V15.168H7.97967C8.15723 15.168 8.30353 15.1375 8.41859 15.0764C8.53507 15.0139 8.62172 14.928 8.67853 14.8186C8.73677 14.7078 8.76589 14.5807 8.76589 14.4372C8.76589 14.2923 8.73677 14.1659 8.67853 14.0579C8.62172 13.9486 8.53507 13.864 8.41859 13.8044C8.30211 13.7433 8.15439 13.7128 7.97541 13.7128H7.35325Z" fill="black"/>
<path d="M4.875 10.8857C3.9085 10.8857 3.125 11.6692 3.125 12.6357V17.6357C3.125 18.6022 3.9085 19.3857 4.875 19.3857H19.125C20.0915 19.3857 20.875 18.6022 20.875 17.6357V12.6357C20.875 11.6692 20.0915 10.8857 19.125 10.8857H4.875ZM14.6807 17.3221V12.9585H17.5699V13.7191H15.6032V14.7589H17.3781V15.5196H15.6032V17.3221H14.6807ZM10.3154 17.3221V12.9585H11.8751C12.314 12.9585 12.6918 13.0459 13.0086 13.2206C13.3254 13.3939 13.569 13.6432 13.7394 13.9684C13.9113 14.2937 13.9972 14.6829 13.9972 15.1361C13.9972 15.5906 13.9113 15.9812 13.7394 16.3079C13.569 16.6346 13.324 16.8853 13.0044 17.0601C12.6862 17.2348 12.3055 17.3221 11.8623 17.3221H10.3154ZM6.43066 17.3221V12.9585H8.15226C8.48322 12.9585 8.76518 13.0217 8.99814 13.1481C9.23109 13.2731 9.40865 13.4471 9.53081 13.6701C9.65439 13.8917 9.71618 14.1474 9.71618 14.4372C9.71618 14.727 9.65368 14.9826 9.52868 15.2042C9.40368 15.4258 9.22257 15.5984 8.98535 15.722C8.74956 15.8456 8.46405 15.9074 8.12882 15.9074H7.35325V17.3221H6.43066Z" fill="black"/>
</svg>
