<svg width="24" height="24" viewBox="0 0 24 24" fill="none" xmlns="http://www.w3.org/2000/svg">
<path d="M4 4.25C4 3.00736 5.00736 2 6.25 2H13.9104L20 8.09838V10.2931C19.7277 10.1914 19.4328 10.1357 19.125 10.1357H4.875C4.56717 10.1357 4.27233 10.1914 4 10.2931V4.25ZM13.6113 3.82332V8.38501H18.1664L13.6113 3.82332Z" fill="black"/>
<path d="M19.125 20.1357C19.4284 20.1357 19.7191 20.0817 19.9881 19.9827C19.8716 21.116 18.9141 22 17.75 22H6.25C5.08595 22 4.12836 21.116 4.01189 19.9828C4.28091 20.0817 4.57165 20.1357 4.875 20.1357H19.125Z" fill="black"/>
<path d="M6.83816 15.168V13.7128H7.46032C7.63929 13.7128 7.78702 13.7433 7.9035 13.8044C8.01998 13.864 8.10662 13.9486 8.16344 14.0579C8.22168 14.1659 8.2508 14.2923 8.2508 14.4372C8.2508 14.5807 8.22168 14.7078 8.16344 14.8186C8.10662 14.928 8.01998 15.0139 7.9035 15.0764C7.78844 15.1375 7.64213 15.168 7.46458 15.168H6.83816Z" fill="black"/>
<path d="M4.875 10.8857C3.9085 10.8857 3.125 11.6692 3.125 12.6357V17.6357C3.125 18.6022 3.9085 19.3857 4.875 19.3857H19.125C20.0915 19.3857 20.875 18.6022 20.875 17.6357V12.6357C20.875 11.6692 20.0915 10.8857 19.125 10.8857H4.875ZM17.1064 14.3689C17.0766 14.2652 17.0347 14.1735 16.9807 14.094C16.9268 14.013 16.8607 13.9448 16.7826 13.8894C16.7059 13.8326 16.6178 13.7893 16.5184 13.7595C16.4204 13.7296 16.3117 13.7147 16.1924 13.7147C15.9694 13.7147 15.7733 13.7701 15.6043 13.8809C15.4367 13.9917 15.306 14.1529 15.2123 14.3646C15.1185 14.5748 15.0716 14.8319 15.0716 15.1359C15.0716 15.4399 15.1178 15.6984 15.2101 15.9115C15.3025 16.1245 15.4331 16.2872 15.6022 16.3994C15.7712 16.5102 15.9708 16.5656 16.2009 16.5656C16.4097 16.5656 16.588 16.5287 16.7357 16.4548C16.8849 16.3795 16.9985 16.2737 17.0766 16.1373C17.1522 16.0078 17.1919 15.8558 17.1956 15.6814H16.2584V14.9867H18.0844V15.5365C18.0844 15.92 18.0035 16.2495 17.8415 16.5251C17.6796 16.7992 17.4566 17.0109 17.1725 17.16C16.8884 17.3078 16.5631 17.3816 16.1966 17.3816C15.7876 17.3816 15.4282 17.2914 15.1185 17.111C14.8089 16.9292 14.5674 16.6714 14.3941 16.3376C14.2222 16.0024 14.1363 15.6046 14.1363 15.1444C14.1363 14.7907 14.1874 14.4754 14.2897 14.1984C14.3934 13.92 14.5383 13.6842 14.7243 13.491C14.9104 13.2978 15.127 13.1508 15.3742 13.05C15.6214 12.9491 15.8891 12.8987 16.1775 12.8987C16.4246 12.8987 16.6547 12.9349 16.8678 13.0073C17.0809 13.0784 17.2698 13.1792 17.4346 13.3099C17.6008 13.4406 17.7364 13.5961 17.8415 13.7765C17.9466 13.9555 18.0141 14.1529 18.0439 14.3689H17.1064ZM13.4502 12.9585V17.3221H12.6533L10.7549 14.5757H10.7229V17.3221H9.80034V12.9585H10.61L12.4935 15.7028H12.5319V12.9585H13.4502ZM5.91557 12.9585H7.63716C7.96813 12.9585 8.25009 13.0217 8.48304 13.1481C8.716 13.2731 8.89355 13.4471 9.01571 13.6701C9.13929 13.8917 9.20108 14.1474 9.20108 14.4372C9.20108 14.727 9.13858 14.9826 9.01358 15.2042C8.88858 15.4258 8.70748 15.5984 8.47026 15.722C8.23446 15.8456 7.94895 15.9074 7.61373 15.9074H6.83816V17.3221H5.91557V12.9585Z" fill="black"/>
</svg>
