<svg width="24" height="24" viewBox="0 0 24 24" fill="none" xmlns="http://www.w3.org/2000/svg">
<path d="M4 4.25C4 3.00736 5.00736 2 6.25 2H13.9104L20 8.09838V10.2931C19.7277 10.1914 19.4328 10.1357 19.125 10.1357H4.875C4.56717 10.1357 4.27233 10.1914 4 10.2931V4.25ZM13.6113 3.82332V8.38501H18.1664L13.6113 3.82332Z" fill="black"/>
<path d="M19.125 20.1357C19.4284 20.1357 19.7191 20.0817 19.9881 19.9827C19.8716 21.116 18.9141 22 17.75 22H6.25C5.08595 22 4.12836 21.116 4.01189 19.9828C4.28091 20.0817 4.57165 20.1357 4.875 20.1357H19.125Z" fill="black"/>
<path d="M12.8468 14.3603C12.7559 14.1487 12.6273 13.9882 12.4611 13.8788C12.2949 13.7694 12.1003 13.7147 11.8773 13.7147C11.6543 13.7147 11.4597 13.7694 11.2935 13.8788C11.1273 13.9882 10.998 14.1487 10.9057 14.3603C10.8148 14.572 10.7694 14.8319 10.7694 15.1402C10.7694 15.4484 10.8148 15.7083 10.9057 15.92C10.998 16.1316 11.1273 16.2921 11.2935 16.4015C11.4597 16.5109 11.6543 16.5656 11.8773 16.5656C12.1003 16.5656 12.2949 16.5109 12.4611 16.4015C12.6273 16.2921 12.7559 16.1316 12.8468 15.92C12.9391 15.7083 12.9853 15.4484 12.9853 15.1402C12.9853 14.8319 12.9391 14.572 12.8468 14.3603Z" fill="black"/>
<path d="M6.46751 16.5316H7.05344C7.32617 16.5316 7.55558 16.4834 7.74165 16.3868C7.92915 16.2888 8.06978 16.1375 8.16353 15.9329C8.2587 15.727 8.30629 15.4613 8.30629 15.1361C8.30629 14.8136 8.2587 14.5501 8.16353 14.3456C8.06978 14.141 7.92986 13.9905 7.74379 13.8939C7.55771 13.7973 7.3283 13.749 7.05558 13.749H6.46751V16.5316Z" fill="black"/>
<path d="M4.875 10.8857C3.9085 10.8857 3.125 11.6692 3.125 12.6357V17.6357C3.125 18.6022 3.9085 19.3857 4.875 19.3857H19.125C20.0915 19.3857 20.875 18.6022 20.875 17.6357V12.6357C20.875 11.6692 20.0915 10.8857 19.125 10.8857H4.875ZM18.4542 14.486H17.521C17.5039 14.3653 17.4691 14.2581 17.4165 14.1643C17.364 14.0691 17.2965 13.9882 17.2141 13.9214C17.1317 13.8546 17.0366 13.8035 16.9286 13.768C16.8221 13.7325 16.7063 13.7147 16.5813 13.7147C16.3555 13.7147 16.1587 13.7708 15.9911 13.8831C15.8235 13.9939 15.6935 14.1558 15.6012 14.3689C15.5089 14.5805 15.4627 14.8376 15.4627 15.1402C15.4627 15.4512 15.5089 15.7126 15.6012 15.9242C15.695 16.1359 15.8256 16.2957 15.9933 16.4037C16.1609 16.5116 16.3548 16.5656 16.5749 16.5656C16.6985 16.5656 16.8129 16.5492 16.918 16.5166C17.0245 16.4839 17.119 16.4363 17.2013 16.3738C17.2837 16.3099 17.3519 16.2325 17.4059 16.1416C17.4613 16.0507 17.4996 15.947 17.521 15.8305L18.4542 15.8348C18.43 16.035 18.3697 16.2282 18.2731 16.4143C18.1779 16.599 18.0494 16.7644 17.8874 16.9108C17.7269 17.0556 17.5352 17.1707 17.3121 17.2559C17.0906 17.3397 16.8398 17.3816 16.56 17.3816C16.1708 17.3816 15.8228 17.2936 15.516 17.1174C15.2106 16.9413 14.9691 16.6863 14.7915 16.3525C14.6154 16.0187 14.5273 15.6146 14.5273 15.1402C14.5273 14.6643 14.6168 14.2595 14.7958 13.9257C14.9748 13.5919 15.2177 13.3376 15.5245 13.1629C15.8313 12.9867 16.1765 12.8987 16.56 12.8987C16.8129 12.8987 17.0472 12.9342 17.2631 13.0052C17.4805 13.0762 17.6729 13.1799 17.8406 13.3163C18.0082 13.4512 18.1445 13.6167 18.2496 13.8127C18.3562 14.0088 18.4244 14.2332 18.4542 14.486ZM13.65 16.3546C13.4711 16.6885 13.2267 16.9434 12.9171 17.1196C12.6088 17.2943 12.2623 17.3816 11.8773 17.3816C11.4895 17.3816 11.1415 17.2936 10.8333 17.1174C10.525 16.9413 10.2814 16.6863 10.1025 16.3525C9.92347 16.0187 9.83398 15.6146 9.83398 15.1402C9.83398 14.6643 9.92347 14.2595 10.1025 13.9257C10.2814 13.5919 10.525 13.3376 10.8333 13.1629C11.1415 12.9867 11.4895 12.8987 11.8773 12.8987C12.2623 12.8987 12.6088 12.9867 12.9171 13.1629C13.2267 13.3376 13.4711 13.5919 13.65 13.9257C13.8304 14.2595 13.9206 14.6643 13.9206 15.1402C13.9206 15.616 13.8304 16.0208 13.65 16.3546ZM7.0918 17.3221H5.54492V12.9585H7.10458C7.5435 12.9585 7.92134 13.0459 8.2381 13.2206C8.55487 13.3939 8.79847 13.6432 8.96893 13.9684C9.1408 14.2937 9.22674 14.6829 9.22674 15.1361C9.22674 15.5906 9.1408 15.9812 8.96893 16.3079C8.79847 16.6346 8.55344 16.8853 8.23384 17.0601C7.91566 17.2348 7.53498 17.3221 7.0918 17.3221Z" fill="black"/>
</svg>
