<svg width="24" height="24" viewBox="0 0 24 24" fill="none" xmlns="http://www.w3.org/2000/svg">
<path d="M4 4.25C4 3.00736 5.00736 2 6.25 2H13.9104L20 8.09838V10.2931C19.7277 10.1914 19.4328 10.1357 19.125 10.1357H4.875C4.56717 10.1357 4.27233 10.1914 4 10.2931V4.25ZM13.6113 3.82332V8.38501H18.1664L13.6113 3.82332Z" fill="black"/>
<path d="M19.125 20.1357C19.4284 20.1357 19.7191 20.0817 19.9881 19.9827C19.8716 21.116 18.9141 22 17.75 22H6.25C5.08595 22 4.12836 21.116 4.01189 19.9828C4.28091 20.0817 4.57165 20.1357 4.875 20.1357H19.125Z" fill="black"/>
<path d="M11.2136 15.168H11.84C12.0176 15.168 12.1639 15.1375 12.2789 15.0764C12.3954 15.0139 12.4821 14.928 12.5389 14.8186C12.5971 14.7078 12.6262 14.5807 12.6262 14.4372C12.6262 14.2923 12.5971 14.1659 12.5389 14.0579C12.4821 13.9486 12.3954 13.864 12.2789 13.8044C12.1625 13.7433 12.0147 13.7128 11.8358 13.7128H11.2136V15.168Z" fill="black"/>
<path d="M7.95526 15.168H7.32884V13.7128H7.95099C8.12997 13.7128 8.2777 13.7433 8.39418 13.8044C8.51065 13.864 8.5973 13.9486 8.65412 14.0579C8.71236 14.1659 8.74148 14.2923 8.74148 14.4372C8.74148 14.5807 8.71236 14.7078 8.65412 14.8186C8.5973 14.928 8.51065 15.0139 8.39418 15.0764C8.27912 15.1375 8.13281 15.168 7.95526 15.168Z" fill="black"/>
<path d="M4.875 10.8857C3.9085 10.8857 3.125 11.6692 3.125 12.6357V17.6357C3.125 18.6022 3.9085 19.3857 4.875 19.3857H19.125C20.0915 19.3857 20.875 18.6022 20.875 17.6357V12.6357C20.875 11.6692 20.0915 10.8857 19.125 10.8857H4.875ZM14.0098 13.7191V12.9585H17.5936V13.7191H16.2576V17.3221H15.3457V13.7191H14.0098ZM10.291 12.9585H12.0126C12.3436 12.9585 12.6255 13.0217 12.8585 13.1481C13.0914 13.2731 13.269 13.4471 13.3912 13.6701C13.5147 13.8917 13.5765 14.1474 13.5765 14.4372C13.5765 14.727 13.514 14.9826 13.389 15.2042C13.264 15.4258 13.0829 15.5984 12.8457 15.722C12.6099 15.8456 12.3244 15.9074 11.9892 15.9074H11.2136V17.3221H10.291V12.9585ZM6.40625 17.3221V12.9585H8.12784C8.45881 12.9585 8.74077 13.0217 8.97372 13.1481C9.20668 13.2731 9.38423 13.4471 9.50639 13.6701C9.62997 13.8917 9.69176 14.1474 9.69176 14.4372C9.69176 14.727 9.62926 14.9826 9.50426 15.2042C9.37926 15.4258 9.19815 15.5984 8.96094 15.722C8.72514 15.8456 8.43963 15.9074 8.1044 15.9074H7.32884V17.3221H6.40625Z" fill="black"/>
</svg>
