<svg width="24" height="24" viewBox="0 0 24 24" fill="none" xmlns="http://www.w3.org/2000/svg">
<path d="M4 11.1199C3.47692 11.4224 3.125 11.988 3.125 12.6357V17.6357C3.125 18.2835 3.47692 18.849 4 19.1516V19.75C4 20.9926 5.00736 22 6.25 22H17.75C18.9926 22 20 20.9926 20 19.75V19.1516C20.5231 18.849 20.875 18.2835 20.875 17.6357V12.6357C20.875 11.988 20.5231 11.4224 20 11.1199V8.09838L13.9104 2H6.25C5.00736 2 4 3.00736 4 4.25V11.1199ZM5.5 4.25C5.5 3.83579 5.83579 3.5 6.25 3.5H12.1113V9.88501H18.5V10.8857H5.5V4.25ZM18.5 19.3857V19.75C18.5 20.1642 18.1642 20.5 17.75 20.5H6.25C5.83579 20.5 5.5 20.1642 5.5 19.75V19.3857H18.5ZM18.1664 8.38501H13.6113V3.82332L18.1664 8.38501ZM13.7168 17.3221V12.9585H16.606V13.7191H14.6394V14.7589H16.4142V15.5196H14.6394V17.3221H13.7168ZM12.9577 17.3221H12.0352V12.9585H12.9577V17.3221ZM10.3647 14.3689C10.3349 14.2652 10.293 14.1735 10.239 14.094C10.185 14.013 10.119 13.9448 10.0408 13.8894C9.96413 13.8326 9.87607 13.7893 9.77663 13.7595C9.67862 13.7296 9.56996 13.7147 9.45064 13.7147C9.22763 13.7147 9.03161 13.7701 8.86257 13.8809C8.69496 13.9917 8.56428 14.1529 8.47053 14.3646C8.37678 14.5748 8.3299 14.8319 8.3299 15.1359C8.3299 15.4399 8.37607 15.6984 8.4684 15.9115C8.56072 16.1245 8.69141 16.2872 8.86044 16.3994C9.02947 16.5102 9.22905 16.5656 9.45916 16.5656C9.66797 16.5656 9.84624 16.5287 9.99396 16.4548C10.1431 16.3795 10.2567 16.2737 10.3349 16.1373C10.4104 16.0078 10.4501 15.8558 10.4539 15.6814H9.51669V14.9867H11.3427V15.5365C11.3427 15.92 11.2617 16.2495 11.0998 16.5251C10.9379 16.7992 10.7148 17.0109 10.4308 17.16C10.1467 17.3078 9.82138 17.3816 9.4549 17.3816C9.04581 17.3816 8.68643 17.2914 8.37678 17.111C8.06712 16.9292 7.82564 16.6714 7.65234 16.3376C7.48047 16.0024 7.39453 15.6046 7.39453 15.1444C7.39453 14.7907 7.44567 14.4754 7.54794 14.1984C7.65163 13.92 7.79652 13.6842 7.9826 13.491C8.16868 13.2978 8.3853 13.1508 8.63246 13.05C8.87962 12.9491 9.14737 12.8987 9.43572 12.8987C9.68288 12.8987 9.913 12.9349 10.1261 13.0073C10.3391 13.0784 10.5281 13.1792 10.6928 13.3099C10.859 13.4406 10.9947 13.5961 11.0998 13.7765C11.2049 13.9555 11.2724 14.1529 11.3022 14.3689H10.3647Z" fill="black"/>
</svg>
