<svg width="24" height="24" viewBox="0 0 24 24" fill="none" xmlns="http://www.w3.org/2000/svg">
<path d="M4 11.1199C3.47692 11.4224 3.125 11.988 3.125 12.6357V17.6357C3.125 18.2835 3.47692 18.849 4 19.1516V19.75C4 20.9926 5.00736 22 6.25 22H17.75C18.9926 22 20 20.9926 20 19.75V19.1516C20.5231 18.849 20.875 18.2835 20.875 17.6357V12.6357C20.875 11.988 20.5231 11.4224 20 11.1199V8.09838L13.9104 2H6.25C5.00736 2 4 3.00736 4 4.25V11.1199ZM5.5 4.25C5.5 3.83579 5.83579 3.5 6.25 3.5H12.1113V9.88501H18.5V10.8857H5.5V4.25ZM18.5 19.3857V19.75C18.5 20.1642 18.1642 20.5 17.75 20.5H6.25C5.83579 20.5 5.5 20.1642 5.5 19.75V19.3857H18.5ZM18.1664 8.38501H13.6113V3.82332L18.1664 8.38501ZM16.6611 14.2133C16.6441 14.0414 16.5709 13.9079 16.4417 13.8127C16.3124 13.7176 16.137 13.67 15.9154 13.67C15.7648 13.67 15.6377 13.6913 15.534 13.7339C15.4303 13.7751 15.3508 13.8326 15.2954 13.9065C15.2414 13.9804 15.2144 14.0642 15.2144 14.1579C15.2116 14.236 15.2279 14.3042 15.2634 14.3625C15.3003 14.4207 15.3508 14.4711 15.4147 14.5137C15.4786 14.5549 15.5525 14.5912 15.6363 14.6224C15.7201 14.6522 15.8096 14.6778 15.9047 14.6991L16.2968 14.7929C16.4871 14.8355 16.6618 14.8923 16.8209 14.9633C16.98 15.0343 17.1178 15.1217 17.2343 15.2254C17.3508 15.3291 17.441 15.4512 17.5049 15.5919C17.5702 15.7325 17.6036 15.8937 17.605 16.0755C17.6036 16.3426 17.5354 16.5741 17.4005 16.7701C17.267 16.9647 17.0738 17.116 16.8209 17.224C16.5695 17.3305 16.2662 17.3838 15.9111 17.3838C15.5589 17.3838 15.252 17.3298 14.9907 17.2218C14.7307 17.1139 14.5276 16.9541 14.3813 16.7424C14.2364 16.5294 14.1604 16.2659 14.1533 15.9519H15.0461C15.056 16.0983 15.0979 16.2204 15.1718 16.3184C15.2471 16.415 15.3472 16.4882 15.4722 16.5379C15.5986 16.5862 15.7414 16.6103 15.9005 16.6103C16.0567 16.6103 16.1924 16.5876 16.3074 16.5421C16.4239 16.4967 16.5141 16.4335 16.578 16.3525C16.642 16.2716 16.6739 16.1785 16.6739 16.0734C16.6739 15.9754 16.6448 15.893 16.5866 15.8262C16.5297 15.7595 16.4459 15.7027 16.3351 15.6558C16.2258 15.6089 16.0915 15.5663 15.9324 15.5279L15.4573 15.4086C15.0894 15.3191 14.7989 15.1792 14.5858 14.9889C14.3728 14.7985 14.267 14.5421 14.2684 14.2197C14.267 13.9555 14.3373 13.7247 14.4793 13.5272C14.6228 13.3298 14.8195 13.1757 15.0695 13.0649C15.3195 12.9541 15.6036 12.8987 15.9218 12.8987C16.2457 12.8987 16.5283 12.9541 16.7698 13.0649C17.0127 13.1757 17.2016 13.3298 17.3366 13.5272C17.4715 13.7247 17.5411 13.9534 17.5454 14.2133H16.6611ZM10.8896 12.9585H11.8122V16.5615H13.683V17.3221H10.8896V12.9585ZM7.46626 12.9585L8.34624 14.4457H8.38033L9.26456 12.9585H10.3065L8.97479 15.1403L10.3363 17.3221H9.27521L8.38033 15.8328H8.34624L7.45135 17.3221H6.39453L7.7603 15.1403L6.4201 12.9585H7.46626Z" fill="black"/>
</svg>
