<svg width="24" height="24" viewBox="0 0 24 24" fill="none" xmlns="http://www.w3.org/2000/svg">
<path d="M9.03782 13.7128V15.168H9.66424C9.8418 15.168 9.9881 15.1375 10.1032 15.0764C10.2196 15.0139 10.3063 14.928 10.3631 14.8186C10.4213 14.7078 10.4505 14.5807 10.4505 14.4372C10.4505 14.2923 10.4213 14.1659 10.3631 14.0579C10.3063 13.9486 10.2196 13.864 10.1032 13.8044C9.98668 13.7433 9.83896 13.7128 9.65998 13.7128H9.03782Z" fill="black"/>
<path d="M4 11.1199C3.47692 11.4224 3.125 11.988 3.125 12.6357V17.6357C3.125 18.2835 3.47692 18.849 4 19.1516V19.75C4 20.9926 5.00736 22 6.25 22H17.75C18.9926 22 20 20.9926 20 19.75V19.1516C20.5231 18.849 20.875 18.2835 20.875 17.6357V12.6357C20.875 11.988 20.5231 11.4224 20 11.1199V8.09838L13.9104 2H6.25C5.00736 2 4 3.00736 4 4.25V11.1199ZM5.5 4.25C5.5 3.83579 5.83579 3.5 6.25 3.5H12.1113V9.88501H18.5V10.8857H5.5V4.25ZM18.5 19.3857V19.75C18.5 20.1642 18.1642 20.5 17.75 20.5H6.25C5.83579 20.5 5.5 20.1642 5.5 19.75V19.3857H18.5ZM18.1664 8.38501H13.6113V3.82332L18.1664 8.38501ZM18.5678 14.3689C18.538 14.2652 18.4961 14.1735 18.4421 14.094C18.3881 14.013 18.3221 13.9448 18.244 13.8894C18.1673 13.8326 18.0792 13.7893 17.9798 13.7595C17.8817 13.7296 17.7731 13.7147 17.6538 13.7147C17.4308 13.7147 17.2347 13.7701 17.0657 13.8809C16.8981 13.9917 16.7674 14.1529 16.6737 14.3646C16.5799 14.5748 16.533 14.8319 16.533 15.1359C16.533 15.4399 16.5792 15.6984 16.6715 15.9115C16.7639 16.1245 16.8945 16.2872 17.0636 16.3994C17.2326 16.5102 17.4322 16.5656 17.6623 16.5656C17.8711 16.5656 18.0494 16.5287 18.1971 16.4548C18.3462 16.3795 18.4599 16.2737 18.538 16.1373C18.6136 16.0078 18.6532 15.8558 18.657 15.6814H17.7198V14.9867H19.5458V15.5365C19.5458 15.92 19.4648 16.2495 19.3029 16.5251C19.141 16.7992 18.918 17.0109 18.6339 17.16C18.3498 17.3078 18.0245 17.3816 17.658 17.3816C17.2489 17.3816 16.8896 17.2914 16.5799 17.111C16.2702 16.9292 16.0288 16.6714 15.8555 16.3376C15.6836 16.0024 15.5977 15.6046 15.5977 15.1444C15.5977 14.7907 15.6488 14.4754 15.7511 14.1984C15.8548 13.92 15.9996 13.6842 16.1857 13.491C16.3718 13.2978 16.5884 13.1508 16.8356 13.05C17.0827 12.9491 17.3505 12.8987 17.6388 12.8987C17.886 12.8987 18.1161 12.9349 18.3292 13.0073C18.5423 13.0784 18.7312 13.1792 18.896 13.3099C19.0621 13.4406 19.1978 13.5961 19.3029 13.7765C19.408 13.9555 19.4755 14.1529 19.5053 14.3689H18.5678ZM12 12.9585H14.9403V13.7191H12.9226V14.7589H14.7891V15.5196H12.9226V16.5615H14.9489V17.3221H12V12.9585ZM8.11523 17.3221V12.9585H9.83683C10.1678 12.9585 10.4498 13.0217 10.6827 13.1481C10.9157 13.2731 11.0932 13.4471 11.2154 13.6701C11.339 13.8917 11.4007 14.1474 11.4007 14.4372C11.4007 14.727 11.3382 14.9826 11.2132 15.2042C11.0882 15.4258 10.9071 15.5984 10.6699 15.722C10.4341 15.8456 10.1486 15.9074 9.81339 15.9074H9.03782V17.3221H8.11523ZM7.35283 12.9585V16.0011C7.35283 16.2824 7.28962 16.5267 7.1632 16.7341C7.0382 16.9415 6.86419 17.1013 6.64118 17.2135C6.41817 17.3257 6.15894 17.3818 5.86348 17.3818C5.6007 17.3818 5.36206 17.3356 5.14757 17.2433C4.93451 17.1495 4.76547 17.0075 4.64047 16.8172C4.51547 16.6254 4.45368 16.3846 4.4551 16.0949H5.37343C5.37627 16.2099 5.3997 16.3086 5.44374 16.391C5.48919 16.472 5.55098 16.5345 5.62911 16.5785C5.70865 16.6211 5.8024 16.6424 5.91036 16.6424C6.02399 16.6424 6.11987 16.6183 6.198 16.57C6.27755 16.5203 6.33791 16.4478 6.37911 16.3527C6.4203 16.2575 6.4409 16.1403 6.4409 16.0011V12.9585H7.35283Z" fill="black"/>
</svg>
