<svg width="24" height="24" viewBox="0 0 24 24" fill="none" xmlns="http://www.w3.org/2000/svg">
<path d="M11.2136 15.168H11.84C12.0176 15.168 12.1639 15.1375 12.2789 15.0764C12.3954 15.0139 12.4821 14.928 12.5389 14.8186C12.5971 14.7078 12.6262 14.5807 12.6262 14.4372C12.6262 14.2923 12.5971 14.1659 12.5389 14.0579C12.4821 13.9486 12.3954 13.864 12.2789 13.8044C12.1625 13.7433 12.0147 13.7128 11.8358 13.7128H11.2136V15.168Z" fill="black"/>
<path d="M7.95526 15.168H7.32884V13.7128H7.95099C8.12997 13.7128 8.2777 13.7433 8.39418 13.8044C8.51065 13.864 8.5973 13.9486 8.65412 14.0579C8.71236 14.1659 8.74148 14.2923 8.74148 14.4372C8.74148 14.5807 8.71236 14.7078 8.65412 14.8186C8.5973 14.928 8.51065 15.0139 8.39418 15.0764C8.27912 15.1375 8.13281 15.168 7.95526 15.168Z" fill="black"/>
<path d="M4 11.1199C3.47692 11.4224 3.125 11.988 3.125 12.6357V17.6357C3.125 18.2835 3.47692 18.849 4 19.1516V19.75C4 20.9926 5.00736 22 6.25 22H17.75C18.9926 22 20 20.9926 20 19.75V19.1516C20.5231 18.849 20.875 18.2835 20.875 17.6357V12.6357C20.875 11.988 20.5231 11.4224 20 11.1199V8.09838L13.9104 2H6.25C5.00736 2 4 3.00736 4 4.25V11.1199ZM5.5 4.25C5.5 3.83579 5.83579 3.5 6.25 3.5H12.1113V9.88501H18.5V10.8857H5.5V4.25ZM18.5 19.3857V19.75C18.5 20.1642 18.1642 20.5 17.75 20.5H6.25C5.83579 20.5 5.5 20.1642 5.5 19.75V19.3857H18.5ZM18.1664 8.38501H13.6113V3.82332L18.1664 8.38501ZM14.0098 13.7191V12.9585H17.5936V13.7191H16.2576V17.3221H15.3457V13.7191H14.0098ZM10.291 12.9585H12.0126C12.3436 12.9585 12.6255 13.0217 12.8585 13.1481C13.0914 13.2731 13.269 13.4471 13.3912 13.6701C13.5147 13.8917 13.5765 14.1474 13.5765 14.4372C13.5765 14.727 13.514 14.9826 13.389 15.2042C13.264 15.4258 13.0829 15.5984 12.8457 15.722C12.6099 15.8456 12.3244 15.9074 11.9892 15.9074H11.2136V17.3221H10.291V12.9585ZM6.40625 17.3221V12.9585H8.12784C8.45881 12.9585 8.74077 13.0217 8.97372 13.1481C9.20668 13.2731 9.38423 13.4471 9.50639 13.6701C9.62997 13.8917 9.69176 14.1474 9.69176 14.4372C9.69176 14.727 9.62926 14.9826 9.50426 15.2042C9.37926 15.4258 9.19815 15.5984 8.96094 15.722C8.72514 15.8456 8.43963 15.9074 8.1044 15.9074H7.32884V17.3221H6.40625Z" fill="black"/>
</svg>
