<svg width="24" height="24" viewBox="0 0 24 24" fill="none" xmlns="http://www.w3.org/2000/svg">
<path d="M6.8386 13.7128V15.168H7.46502C7.64258 15.168 7.78889 15.1375 7.90394 15.0764C8.02042 15.0139 8.10707 14.928 8.16389 14.8186C8.22212 14.7078 8.25124 14.5807 8.25124 14.4372C8.25124 14.2923 8.22212 14.1659 8.16389 14.0579C8.10707 13.9486 8.02042 13.864 7.90394 13.8044C7.78746 13.7433 7.63974 13.7128 7.46076 13.7128H6.8386Z" fill="black"/>
<path d="M4 11.1199C3.47692 11.4224 3.125 11.988 3.125 12.6357V17.6357C3.125 18.2835 3.47692 18.849 4 19.1516V19.75C4 20.9926 5.00736 22 6.25 22H17.75C18.9926 22 20 20.9926 20 19.75V19.1516C20.5231 18.849 20.875 18.2835 20.875 17.6357V12.6357C20.875 11.988 20.5231 11.4224 20 11.1199V8.09838L13.9104 2H6.25C5.00736 2 4 3.00736 4 4.25V11.1199ZM5.5 4.25C5.5 3.83579 5.83579 3.5 6.25 3.5H12.1113V9.88501H18.5V10.8857H5.5V4.25ZM18.5 19.3857V19.75C18.5 20.1642 18.1642 20.5 17.75 20.5H6.25C5.83579 20.5 5.5 20.1642 5.5 19.75V19.3857H18.5ZM18.1664 8.38501H13.6113V3.82332L18.1664 8.38501ZM17.1069 14.3689C17.0771 14.2652 17.0352 14.1735 16.9812 14.094C16.9272 14.013 16.8612 13.9448 16.783 13.8894C16.7063 13.8326 16.6183 13.7893 16.5188 13.7595C16.4208 13.7296 16.3121 13.7147 16.1928 13.7147C15.9698 13.7147 15.7738 13.7701 15.6048 13.8809C15.4371 13.9917 15.3065 14.1529 15.2127 14.3646C15.119 14.5748 15.0721 14.8319 15.0721 15.1359C15.0721 15.4399 15.1183 15.6984 15.2106 15.9115C15.3029 16.1245 15.4336 16.2872 15.6026 16.3994C15.7717 16.5102 15.9712 16.5656 16.2013 16.5656C16.4102 16.5656 16.5884 16.5287 16.7362 16.4548C16.8853 16.3795 16.9989 16.2737 17.0771 16.1373C17.1526 16.0078 17.1923 15.8558 17.1961 15.6814H16.2589V14.9867H18.0849V15.5365C18.0849 15.92 18.0039 16.2495 17.842 16.5251C17.68 16.7992 17.457 17.0109 17.1729 17.16C16.8888 17.3078 16.5636 17.3816 16.1971 17.3816C15.788 17.3816 15.4286 17.2914 15.119 17.111C14.8093 16.9292 14.5678 16.6714 14.3945 16.3376C14.2227 16.0024 14.1367 15.6046 14.1367 15.1444C14.1367 14.7907 14.1879 14.4754 14.2901 14.1984C14.3938 13.92 14.5387 13.6842 14.7248 13.491C14.9109 13.2978 15.1275 13.1508 15.3746 13.05C15.6218 12.9491 15.8896 12.8987 16.1779 12.8987C16.4251 12.8987 16.6552 12.9349 16.8683 13.0073C17.0813 13.0784 17.2702 13.1792 17.435 13.3099C17.6012 13.4406 17.7369 13.5961 17.842 13.7765C17.9471 13.9555 18.0146 14.1529 18.0444 14.3689H17.1069ZM13.4506 17.3221H12.6538L10.7553 14.5757H10.7234V17.3221H9.80078V12.9585H10.6104L12.494 15.7028H12.5323V12.9585H13.4506V17.3221ZM5.91602 17.3221V12.9585H7.63761C7.96857 12.9585 8.25053 13.0217 8.48349 13.1481C8.71644 13.2731 8.894 13.4471 9.01616 13.6701C9.13974 13.8917 9.20153 14.1474 9.20153 14.4372C9.20153 14.727 9.13903 14.9826 9.01403 15.2042C8.88903 15.4258 8.70792 15.5984 8.4707 15.722C8.23491 15.8456 7.9494 15.9074 7.61417 15.9074H6.8386V17.3221H5.91602Z" fill="black"/>
</svg>
