<svg width="24" height="24" viewBox="0 0 24 24" fill="none" xmlns="http://www.w3.org/2000/svg">
<path d="M10.8747 15.168V13.7128H11.4969C11.6759 13.7128 11.8236 13.7433 11.9401 13.8044C12.0566 13.864 12.1432 13.9486 12.2 14.0579C12.2583 14.1659 12.2874 14.2923 12.2874 14.4372C12.2874 14.5807 12.2583 14.7078 12.2 14.8186C12.1432 14.928 12.0566 15.0139 11.9401 15.0764C11.825 15.1375 11.6787 15.168 11.5012 15.168H10.8747Z" fill="black"/>
<path d="M4 11.1199C3.47692 11.4224 3.125 11.988 3.125 12.6357V17.6357C3.125 18.2835 3.47692 18.849 4 19.1516V19.75C4 20.9926 5.00736 22 6.25 22H17.75C18.9926 22 20 20.9926 20 19.75V19.1516C20.5231 18.849 20.875 18.2835 20.875 17.6357V12.6357C20.875 11.988 20.5231 11.4224 20 11.1199V8.09838L13.9104 2H6.25C5.00736 2 4 3.00736 4 4.25V11.1199ZM5.5 4.25C5.5 3.83579 5.83579 3.5 6.25 3.5H12.1113V9.88501H18.5V10.8857H5.5V4.25ZM18.5 19.3857V19.75C18.5 20.1642 18.1642 20.5 17.75 20.5H6.25C5.83579 20.5 5.5 20.1642 5.5 19.75V19.3857H18.5ZM18.1664 8.38501H13.6113V3.82332L18.1664 8.38501ZM16.7309 14.3689C16.7011 14.2652 16.6592 14.1735 16.6052 14.094C16.5512 14.013 16.4852 13.9448 16.407 13.8894C16.3303 13.8326 16.2423 13.7893 16.1428 13.7595C16.0448 13.7296 15.9362 13.7147 15.8168 13.7147C15.5938 13.7147 15.3978 13.7701 15.2288 13.8809C15.0612 13.9917 14.9305 14.1529 14.8367 14.3646C14.743 14.5748 14.6961 14.8319 14.6961 15.1359C14.6961 15.4399 14.7423 15.6984 14.8346 15.9115C14.9269 16.1245 15.0576 16.2872 15.2267 16.3994C15.3957 16.5102 15.5953 16.5656 15.8254 16.5656C16.0342 16.5656 16.2124 16.5287 16.3602 16.4548C16.5093 16.3795 16.623 16.2737 16.7011 16.1373C16.7767 16.0078 16.8163 15.8558 16.8201 15.6814H15.8829V14.9867H17.7089V15.5365C17.7089 15.92 17.6279 16.2495 17.466 16.5251C17.3041 16.7992 17.0811 17.0109 16.797 17.16C16.5129 17.3078 16.1876 17.3816 15.8211 17.3816C15.412 17.3816 15.0526 17.2914 14.743 17.111C14.4333 16.9292 14.1918 16.6714 14.0186 16.3376C13.8467 16.0024 13.7607 15.6046 13.7607 15.1444C13.7607 14.7907 13.8119 14.4754 13.9142 14.1984C14.0178 13.92 14.1627 13.6842 14.3488 13.491C14.5349 13.2978 14.7515 13.1508 14.9987 13.05C15.2458 12.9491 15.5136 12.8987 15.8019 12.8987C16.0491 12.8987 16.2792 12.9349 16.4923 13.0073C16.7053 13.0784 16.8943 13.1792 17.059 13.3099C17.2252 13.4406 17.3609 13.5961 17.466 13.7765C17.5711 13.9555 17.6386 14.1529 17.6684 14.3689H16.7309ZM9.95215 12.9585H11.6737C12.0047 12.9585 12.2867 13.0217 12.5196 13.1481C12.7526 13.2731 12.9301 13.4471 13.0523 13.6701C13.1759 13.8917 13.2377 14.1474 13.2377 14.4372C13.2377 14.727 13.1752 14.9826 13.0502 15.2042C12.9252 15.4258 12.7441 15.5984 12.5068 15.722C12.271 15.8456 11.9855 15.9074 11.6503 15.9074H10.8747V17.3221H9.95215V12.9585ZM8.27781 12.9585H9.18974V16.0011C9.18974 16.2824 9.12653 16.5267 9.00011 16.7341C8.87511 16.9415 8.70111 17.1013 8.4781 17.2135C8.25508 17.3257 7.99585 17.3818 7.7004 17.3818C7.43761 17.3818 7.19898 17.3356 6.98449 17.2433C6.77142 17.1495 6.60239 17.0075 6.47739 16.8172C6.35239 16.6254 6.2906 16.3846 6.29202 16.0949H7.21034C7.21318 16.2099 7.23662 16.3086 7.28065 16.391C7.32611 16.472 7.3879 16.5345 7.46602 16.5785C7.54557 16.6211 7.63932 16.6424 7.74727 16.6424C7.86091 16.6424 7.95679 16.6183 8.03491 16.57C8.11446 16.5203 8.17483 16.4478 8.21602 16.3527C8.25722 16.2575 8.27781 16.1403 8.27781 16.0011V12.9585Z" fill="black"/>
</svg>
