<svg width="24" height="24" viewBox="0 0 24 24" fill="none" xmlns="http://www.w3.org/2000/svg">
<path d="M4 11.1199C3.47692 11.4224 3.125 11.988 3.125 12.6357V17.6357C3.125 18.2835 3.47692 18.849 4 19.1516V19.75C4 20.9926 5.00736 22 6.25 22H17.75C18.9926 22 20 20.9926 20 19.75V19.1516C20.5231 18.849 20.875 18.2835 20.875 17.6357V12.6357C20.875 11.988 20.5231 11.4224 20 11.1199V8.09838L13.9104 2H6.25C5.00736 2 4 3.00736 4 4.25V11.1199ZM5.5 4.25C5.5 3.83579 5.83579 3.5 6.25 3.5H12.1113V9.88501H18.5V10.8857H5.5V4.25ZM18.5 19.3857V19.75C18.5 20.1642 18.1642 20.5 17.75 20.5H6.25C5.83579 20.5 5.5 20.1642 5.5 19.75V19.3857H18.5ZM18.1664 8.38501H13.6113V3.82332L18.1664 8.38501ZM16.5444 14.3689C16.5146 14.2652 16.4727 14.1735 16.4187 14.094C16.3647 14.013 16.2987 13.9448 16.2205 13.8894C16.1438 13.8326 16.0558 13.7893 15.9563 13.7595C15.8583 13.7296 15.7496 13.7147 15.6303 13.7147C15.4073 13.7147 15.2113 13.7701 15.0423 13.8809C14.8746 13.9917 14.744 14.1529 14.6502 14.3646C14.5565 14.5748 14.5096 14.8319 14.5096 15.1359C14.5096 15.4399 14.5558 15.6984 14.6481 15.9115C14.7404 16.1245 14.8711 16.2872 15.0401 16.3994C15.2092 16.5102 15.4087 16.5656 15.6388 16.5656C15.8477 16.5656 16.0259 16.5287 16.1737 16.4548C16.3228 16.3795 16.4364 16.2737 16.5146 16.1373C16.5901 16.0078 16.6298 15.8558 16.6336 15.6814H15.6964V14.9867H17.5224V15.5365C17.5224 15.92 17.4414 16.2495 17.2795 16.5251C17.1175 16.7992 16.8945 17.0109 16.6104 17.16C16.3263 17.3078 16.0011 17.3816 15.6346 17.3816C15.2255 17.3816 14.8661 17.2914 14.5565 17.111C14.2468 16.9292 14.0053 16.6714 13.832 16.3376C13.6602 16.0024 13.5742 15.6046 13.5742 15.1444C13.5742 14.7907 13.6254 14.4754 13.7276 14.1984C13.8313 13.92 13.9762 13.6842 14.1623 13.491C14.3484 13.2978 14.565 13.1508 14.8121 13.05C15.0593 12.9491 15.3271 12.8987 15.6154 12.8987C15.8626 12.8987 16.0927 12.9349 16.3058 13.0073C16.5188 13.0784 16.7077 13.1792 16.8725 13.3099C17.0387 13.4406 17.1744 13.5961 17.2795 13.7765C17.3846 13.9555 17.4521 14.1529 17.4819 14.3689H16.5444ZM9.29794 12.9585L10.4996 15.8903H10.5508L11.7525 12.9585H12.8903V17.3221H11.9954V14.4819H11.9592L10.8299 17.3008H10.2205L9.09126 14.4713H9.05504V17.3221H8.16016V12.9585H9.29794ZM7.4011 12.9585V17.3221H6.47852V12.9585H7.4011Z" fill="black"/>
</svg>
